<mxfile host="Electron" modified="2023-05-21T19:16:50.994Z" agent="Mozilla/5.0 (Windows NT 10.0; Win64; x64) AppleWebKit/537.36 (KHTML, like Gecko) draw.io/21.2.8 Chrome/112.0.5615.165 Electron/24.2.0 Safari/537.36" etag="CxyXBGM1fd9mYbpa7-e2" version="21.2.8" type="device">
  <diagram name="Pagina-1" id="RgT5V78wegxijUSIYcRX">
    <mxGraphModel dx="1418" dy="828" grid="1" gridSize="10" guides="1" tooltips="1" connect="1" arrows="1" fold="1" page="1" pageScale="1" pageWidth="827" pageHeight="1169" math="0" shadow="0">
      <root>
        <mxCell id="0" />
        <mxCell id="1" parent="0" />
        <mxCell id="3aJ_x7FP6PWGD6nfpYZ6-1" value="" style="rounded=1;whiteSpace=wrap;html=1;absoluteArcSize=1;arcSize=14;strokeWidth=2;fillColor=#dae8fc;strokeColor=none;" parent="1" vertex="1">
          <mxGeometry x="35" y="40" width="105" height="180" as="geometry" />
        </mxCell>
        <mxCell id="3aJ_x7FP6PWGD6nfpYZ6-2" value="" style="ellipse;whiteSpace=wrap;html=1;fillColor=#1ba1e2;strokeColor=#006EAF;fontColor=#ffffff;" parent="1" vertex="1">
          <mxGeometry x="50" y="70" width="10" height="10" as="geometry" />
        </mxCell>
        <mxCell id="3aJ_x7FP6PWGD6nfpYZ6-3" value="" style="ellipse;whiteSpace=wrap;html=1;fillColor=#1ba1e2;strokeColor=#006EAF;fontColor=#ffffff;" parent="1" vertex="1">
          <mxGeometry x="50" y="90" width="10" height="10" as="geometry" />
        </mxCell>
        <mxCell id="3aJ_x7FP6PWGD6nfpYZ6-4" value="" style="ellipse;whiteSpace=wrap;html=1;fillColor=#1ba1e2;strokeColor=#006EAF;fontColor=#ffffff;" parent="1" vertex="1">
          <mxGeometry x="50" y="110" width="10" height="10" as="geometry" />
        </mxCell>
        <mxCell id="3aJ_x7FP6PWGD6nfpYZ6-5" value="" style="ellipse;whiteSpace=wrap;html=1;fillColor=#1ba1e2;strokeColor=#006EAF;fontColor=#ffffff;" parent="1" vertex="1">
          <mxGeometry x="50" y="130" width="10" height="10" as="geometry" />
        </mxCell>
        <mxCell id="3aJ_x7FP6PWGD6nfpYZ6-6" value="" style="ellipse;whiteSpace=wrap;html=1;fillColor=#1ba1e2;strokeColor=#006EAF;fontColor=#ffffff;" parent="1" vertex="1">
          <mxGeometry x="50" y="150" width="10" height="10" as="geometry" />
        </mxCell>
        <mxCell id="3aJ_x7FP6PWGD6nfpYZ6-13" value="" style="ellipse;whiteSpace=wrap;html=1;" parent="1" vertex="1">
          <mxGeometry x="82.5" y="170" width="10" height="10" as="geometry" />
        </mxCell>
        <mxCell id="3aJ_x7FP6PWGD6nfpYZ6-14" value="" style="ellipse;whiteSpace=wrap;html=1;" parent="1" vertex="1">
          <mxGeometry x="120" y="70" width="10" height="10" as="geometry" />
        </mxCell>
        <mxCell id="3aJ_x7FP6PWGD6nfpYZ6-15" value="" style="ellipse;whiteSpace=wrap;html=1;" parent="1" vertex="1">
          <mxGeometry x="120" y="90" width="10" height="10" as="geometry" />
        </mxCell>
        <mxCell id="3aJ_x7FP6PWGD6nfpYZ6-16" value="" style="ellipse;whiteSpace=wrap;html=1;" parent="1" vertex="1">
          <mxGeometry x="120" y="110" width="10" height="10" as="geometry" />
        </mxCell>
        <mxCell id="3aJ_x7FP6PWGD6nfpYZ6-17" value="" style="ellipse;whiteSpace=wrap;html=1;" parent="1" vertex="1">
          <mxGeometry x="120" y="130" width="10" height="10" as="geometry" />
        </mxCell>
        <mxCell id="3aJ_x7FP6PWGD6nfpYZ6-18" value="" style="ellipse;whiteSpace=wrap;html=1;" parent="1" vertex="1">
          <mxGeometry x="120" y="150" width="10" height="10" as="geometry" />
        </mxCell>
        <mxCell id="3aJ_x7FP6PWGD6nfpYZ6-23" value="" style="ellipse;whiteSpace=wrap;html=1;" parent="1" vertex="1">
          <mxGeometry x="82.5" y="50" width="10" height="10" as="geometry" />
        </mxCell>
        <mxCell id="3aJ_x7FP6PWGD6nfpYZ6-24" value="" style="ellipse;whiteSpace=wrap;html=1;" parent="1" vertex="1">
          <mxGeometry x="82.5" y="70" width="10" height="10" as="geometry" />
        </mxCell>
        <mxCell id="3aJ_x7FP6PWGD6nfpYZ6-25" value="" style="ellipse;whiteSpace=wrap;html=1;" parent="1" vertex="1">
          <mxGeometry x="82.5" y="90" width="10" height="10" as="geometry" />
        </mxCell>
        <mxCell id="3aJ_x7FP6PWGD6nfpYZ6-26" value="" style="ellipse;whiteSpace=wrap;html=1;" parent="1" vertex="1">
          <mxGeometry x="82.5" y="110" width="10" height="10" as="geometry" />
        </mxCell>
        <mxCell id="3aJ_x7FP6PWGD6nfpYZ6-27" value="" style="ellipse;whiteSpace=wrap;html=1;" parent="1" vertex="1">
          <mxGeometry x="82.5" y="130" width="10" height="10" as="geometry" />
        </mxCell>
        <mxCell id="3aJ_x7FP6PWGD6nfpYZ6-28" value="" style="ellipse;whiteSpace=wrap;html=1;" parent="1" vertex="1">
          <mxGeometry x="82.5" y="150" width="10" height="10" as="geometry" />
        </mxCell>
        <mxCell id="3aJ_x7FP6PWGD6nfpYZ6-33" value="" style="endArrow=none;html=1;rounded=0;exitX=1;exitY=0;exitDx=0;exitDy=0;entryX=0;entryY=0.5;entryDx=0;entryDy=0;" parent="1" source="3aJ_x7FP6PWGD6nfpYZ6-2" target="3aJ_x7FP6PWGD6nfpYZ6-23" edge="1">
          <mxGeometry width="50" height="50" relative="1" as="geometry">
            <mxPoint x="60" y="70" as="sourcePoint" />
            <mxPoint x="80" y="60" as="targetPoint" />
          </mxGeometry>
        </mxCell>
        <mxCell id="3aJ_x7FP6PWGD6nfpYZ6-34" value="" style="endArrow=none;html=1;rounded=0;exitX=1;exitY=0;exitDx=0;exitDy=0;entryX=0;entryY=1;entryDx=0;entryDy=0;" parent="1" source="3aJ_x7FP6PWGD6nfpYZ6-3" target="3aJ_x7FP6PWGD6nfpYZ6-24" edge="1">
          <mxGeometry width="50" height="50" relative="1" as="geometry">
            <mxPoint x="69" y="81" as="sourcePoint" />
            <mxPoint x="80" y="80" as="targetPoint" />
          </mxGeometry>
        </mxCell>
        <mxCell id="3aJ_x7FP6PWGD6nfpYZ6-35" value="" style="endArrow=none;html=1;rounded=0;entryX=0;entryY=0.5;entryDx=0;entryDy=0;exitX=1;exitY=0.5;exitDx=0;exitDy=0;" parent="1" source="3aJ_x7FP6PWGD6nfpYZ6-4" target="3aJ_x7FP6PWGD6nfpYZ6-25" edge="1">
          <mxGeometry width="50" height="50" relative="1" as="geometry">
            <mxPoint x="60" y="110" as="sourcePoint" />
            <mxPoint x="80" y="100" as="targetPoint" />
          </mxGeometry>
        </mxCell>
        <mxCell id="3aJ_x7FP6PWGD6nfpYZ6-36" value="" style="endArrow=none;html=1;rounded=0;entryX=0;entryY=0.5;entryDx=0;entryDy=0;exitX=1;exitY=0.5;exitDx=0;exitDy=0;" parent="1" source="3aJ_x7FP6PWGD6nfpYZ6-5" target="3aJ_x7FP6PWGD6nfpYZ6-27" edge="1">
          <mxGeometry width="50" height="50" relative="1" as="geometry">
            <mxPoint x="70" y="125" as="sourcePoint" />
            <mxPoint x="93" y="105" as="targetPoint" />
          </mxGeometry>
        </mxCell>
        <mxCell id="3aJ_x7FP6PWGD6nfpYZ6-37" value="" style="endArrow=none;html=1;rounded=0;entryX=0;entryY=0.5;entryDx=0;entryDy=0;exitX=1;exitY=0.5;exitDx=0;exitDy=0;" parent="1" source="3aJ_x7FP6PWGD6nfpYZ6-6" target="3aJ_x7FP6PWGD6nfpYZ6-28" edge="1">
          <mxGeometry width="50" height="50" relative="1" as="geometry">
            <mxPoint x="80" y="135" as="sourcePoint" />
            <mxPoint x="103" y="115" as="targetPoint" />
          </mxGeometry>
        </mxCell>
        <mxCell id="3aJ_x7FP6PWGD6nfpYZ6-38" value="" style="endArrow=none;html=1;rounded=0;entryX=0;entryY=0.5;entryDx=0;entryDy=0;exitX=1;exitY=1;exitDx=0;exitDy=0;" parent="1" source="3aJ_x7FP6PWGD6nfpYZ6-6" target="3aJ_x7FP6PWGD6nfpYZ6-13" edge="1">
          <mxGeometry width="50" height="50" relative="1" as="geometry">
            <mxPoint x="90" y="145" as="sourcePoint" />
            <mxPoint x="113" y="125" as="targetPoint" />
          </mxGeometry>
        </mxCell>
        <mxCell id="3aJ_x7FP6PWGD6nfpYZ6-39" value="" style="endArrow=none;html=1;rounded=0;entryX=0;entryY=0.5;entryDx=0;entryDy=0;exitX=1;exitY=0.5;exitDx=0;exitDy=0;" parent="1" source="3aJ_x7FP6PWGD6nfpYZ6-4" target="3aJ_x7FP6PWGD6nfpYZ6-26" edge="1">
          <mxGeometry width="50" height="50" relative="1" as="geometry">
            <mxPoint x="70" y="125" as="sourcePoint" />
            <mxPoint x="93" y="105" as="targetPoint" />
          </mxGeometry>
        </mxCell>
        <mxCell id="3aJ_x7FP6PWGD6nfpYZ6-40" value="" style="endArrow=none;html=1;rounded=0;exitX=1;exitY=0.5;exitDx=0;exitDy=0;entryX=0;entryY=0;entryDx=0;entryDy=0;" parent="1" source="3aJ_x7FP6PWGD6nfpYZ6-23" target="3aJ_x7FP6PWGD6nfpYZ6-15" edge="1">
          <mxGeometry width="50" height="50" relative="1" as="geometry">
            <mxPoint x="69" y="81" as="sourcePoint" />
            <mxPoint x="93" y="65" as="targetPoint" />
          </mxGeometry>
        </mxCell>
        <mxCell id="3aJ_x7FP6PWGD6nfpYZ6-41" value="" style="endArrow=none;html=1;rounded=0;exitX=1;exitY=0.5;exitDx=0;exitDy=0;entryX=0;entryY=0.5;entryDx=0;entryDy=0;" parent="1" source="3aJ_x7FP6PWGD6nfpYZ6-24" target="3aJ_x7FP6PWGD6nfpYZ6-14" edge="1">
          <mxGeometry width="50" height="50" relative="1" as="geometry">
            <mxPoint x="103" y="65" as="sourcePoint" />
            <mxPoint x="131" y="101" as="targetPoint" />
          </mxGeometry>
        </mxCell>
        <mxCell id="3aJ_x7FP6PWGD6nfpYZ6-42" value="" style="endArrow=none;html=1;rounded=0;exitX=1;exitY=0.5;exitDx=0;exitDy=0;entryX=0;entryY=0.5;entryDx=0;entryDy=0;" parent="1" edge="1">
          <mxGeometry width="50" height="50" relative="1" as="geometry">
            <mxPoint x="92.5" y="94.8" as="sourcePoint" />
            <mxPoint x="119.5" y="94.8" as="targetPoint" />
          </mxGeometry>
        </mxCell>
        <mxCell id="3aJ_x7FP6PWGD6nfpYZ6-43" value="" style="endArrow=none;html=1;rounded=0;exitX=1;exitY=0.5;exitDx=0;exitDy=0;entryX=0;entryY=0.5;entryDx=0;entryDy=0;" parent="1" edge="1">
          <mxGeometry width="50" height="50" relative="1" as="geometry">
            <mxPoint x="92.5" y="154.8" as="sourcePoint" />
            <mxPoint x="119.5" y="154.8" as="targetPoint" />
          </mxGeometry>
        </mxCell>
        <mxCell id="3aJ_x7FP6PWGD6nfpYZ6-44" value="" style="endArrow=none;html=1;rounded=0;exitX=1;exitY=0.5;exitDx=0;exitDy=0;entryX=0;entryY=1;entryDx=0;entryDy=0;" parent="1" source="3aJ_x7FP6PWGD6nfpYZ6-13" target="3aJ_x7FP6PWGD6nfpYZ6-17" edge="1">
          <mxGeometry width="50" height="50" relative="1" as="geometry">
            <mxPoint x="102.5" y="164.8" as="sourcePoint" />
            <mxPoint x="129.5" y="164.8" as="targetPoint" />
          </mxGeometry>
        </mxCell>
        <mxCell id="3aJ_x7FP6PWGD6nfpYZ6-45" value="" style="endArrow=none;html=1;rounded=0;entryX=0;entryY=0;entryDx=0;entryDy=0;exitX=1;exitY=0.5;exitDx=0;exitDy=0;" parent="1" source="3aJ_x7FP6PWGD6nfpYZ6-25" target="3aJ_x7FP6PWGD6nfpYZ6-16" edge="1">
          <mxGeometry width="50" height="50" relative="1" as="geometry">
            <mxPoint x="88" y="100" as="sourcePoint" />
            <mxPoint x="131" y="101" as="targetPoint" />
          </mxGeometry>
        </mxCell>
        <mxCell id="3aJ_x7FP6PWGD6nfpYZ6-46" value="" style="endArrow=none;html=1;rounded=0;entryX=0;entryY=0.5;entryDx=0;entryDy=0;exitX=1;exitY=0.5;exitDx=0;exitDy=0;" parent="1" source="3aJ_x7FP6PWGD6nfpYZ6-27" target="3aJ_x7FP6PWGD6nfpYZ6-17" edge="1">
          <mxGeometry width="50" height="50" relative="1" as="geometry">
            <mxPoint x="103" y="105" as="sourcePoint" />
            <mxPoint x="131" y="121" as="targetPoint" />
          </mxGeometry>
        </mxCell>
        <mxCell id="3aJ_x7FP6PWGD6nfpYZ6-47" value="" style="endArrow=none;html=1;rounded=0;entryX=0;entryY=0.5;entryDx=0;entryDy=0;exitX=1;exitY=0.5;exitDx=0;exitDy=0;" parent="1" edge="1">
          <mxGeometry width="50" height="50" relative="1" as="geometry">
            <mxPoint x="93" y="114.8" as="sourcePoint" />
            <mxPoint x="120" y="114.8" as="targetPoint" />
          </mxGeometry>
        </mxCell>
        <mxCell id="3aJ_x7FP6PWGD6nfpYZ6-51" value="" style="endArrow=none;html=1;rounded=0;exitX=1;exitY=0.5;exitDx=0;exitDy=0;entryX=0;entryY=0.5;entryDx=0;entryDy=0;" parent="1" source="3aJ_x7FP6PWGD6nfpYZ6-23" target="3aJ_x7FP6PWGD6nfpYZ6-14" edge="1">
          <mxGeometry width="50" height="50" relative="1" as="geometry">
            <mxPoint x="100" y="60" as="sourcePoint" />
            <mxPoint x="120" y="70" as="targetPoint" />
          </mxGeometry>
        </mxCell>
        <mxCell id="3aJ_x7FP6PWGD6nfpYZ6-52" value="" style="endArrow=none;html=1;rounded=0;entryX=0;entryY=1;entryDx=0;entryDy=0;exitX=1;exitY=0.5;exitDx=0;exitDy=0;" parent="1" source="3aJ_x7FP6PWGD6nfpYZ6-27" target="3aJ_x7FP6PWGD6nfpYZ6-16" edge="1">
          <mxGeometry width="50" height="50" relative="1" as="geometry">
            <mxPoint x="103" y="145" as="sourcePoint" />
            <mxPoint x="130" y="145" as="targetPoint" />
          </mxGeometry>
        </mxCell>
        <mxCell id="3aJ_x7FP6PWGD6nfpYZ6-53" value="Epoch 0" style="text;html=1;align=center;verticalAlign=middle;resizable=0;points=[];autosize=1;strokeColor=none;fillColor=none;" parent="1" vertex="1">
          <mxGeometry x="52.5" y="190" width="70" height="30" as="geometry" />
        </mxCell>
        <mxCell id="3aJ_x7FP6PWGD6nfpYZ6-55" value="" style="rounded=1;whiteSpace=wrap;html=1;absoluteArcSize=1;arcSize=14;strokeWidth=2;fillColor=#dae8fc;strokeColor=none;" parent="1" vertex="1">
          <mxGeometry x="160" y="40" width="105" height="180" as="geometry" />
        </mxCell>
        <mxCell id="3aJ_x7FP6PWGD6nfpYZ6-56" value="" style="ellipse;whiteSpace=wrap;html=1;fillColor=#1ba1e2;strokeColor=#006EAF;fontColor=#ffffff;" parent="1" vertex="1">
          <mxGeometry x="175" y="70" width="10" height="10" as="geometry" />
        </mxCell>
        <mxCell id="3aJ_x7FP6PWGD6nfpYZ6-57" value="" style="ellipse;whiteSpace=wrap;html=1;fillColor=#1ba1e2;strokeColor=#006EAF;fontColor=#ffffff;" parent="1" vertex="1">
          <mxGeometry x="175" y="90" width="10" height="10" as="geometry" />
        </mxCell>
        <object label="" id="3aJ_x7FP6PWGD6nfpYZ6-58">
          <mxCell style="ellipse;whiteSpace=wrap;html=1;fillColor=#0030EF;strokeColor=#001DBC;fontColor=#ffffff;rotation=0;" parent="1" vertex="1">
            <mxGeometry x="170" y="110" width="15" height="15" as="geometry" />
          </mxCell>
        </object>
        <mxCell id="3aJ_x7FP6PWGD6nfpYZ6-59" value="" style="ellipse;whiteSpace=wrap;html=1;" parent="1" vertex="1">
          <mxGeometry x="175" y="130" width="10" height="10" as="geometry" />
        </mxCell>
        <object label="" id="3aJ_x7FP6PWGD6nfpYZ6-60">
          <mxCell style="ellipse;whiteSpace=wrap;html=1;fillColor=#005AE2;strokeColor=#0600AF;fontColor=#ffffff;rotation=0;" parent="1" vertex="1">
            <mxGeometry x="171.25" y="148.75" width="12.5" height="12.5" as="geometry" />
          </mxCell>
        </object>
        <mxCell id="3aJ_x7FP6PWGD6nfpYZ6-61" value="" style="ellipse;whiteSpace=wrap;html=1;" parent="1" vertex="1">
          <mxGeometry x="207.5" y="170" width="10" height="10" as="geometry" />
        </mxCell>
        <mxCell id="3aJ_x7FP6PWGD6nfpYZ6-62" value="" style="ellipse;whiteSpace=wrap;html=1;" parent="1" vertex="1">
          <mxGeometry x="245" y="70" width="10" height="10" as="geometry" />
        </mxCell>
        <mxCell id="3aJ_x7FP6PWGD6nfpYZ6-63" value="" style="ellipse;whiteSpace=wrap;html=1;" parent="1" vertex="1">
          <mxGeometry x="245" y="90" width="10" height="10" as="geometry" />
        </mxCell>
        <mxCell id="3aJ_x7FP6PWGD6nfpYZ6-64" value="" style="ellipse;whiteSpace=wrap;html=1;" parent="1" vertex="1">
          <mxGeometry x="245" y="110" width="10" height="10" as="geometry" />
        </mxCell>
        <mxCell id="3aJ_x7FP6PWGD6nfpYZ6-65" value="" style="ellipse;whiteSpace=wrap;html=1;" parent="1" vertex="1">
          <mxGeometry x="245" y="130" width="10" height="10" as="geometry" />
        </mxCell>
        <mxCell id="3aJ_x7FP6PWGD6nfpYZ6-66" value="" style="ellipse;whiteSpace=wrap;html=1;" parent="1" vertex="1">
          <mxGeometry x="245" y="150" width="10" height="10" as="geometry" />
        </mxCell>
        <mxCell id="3aJ_x7FP6PWGD6nfpYZ6-67" value="" style="ellipse;whiteSpace=wrap;html=1;" parent="1" vertex="1">
          <mxGeometry x="207.5" y="50" width="10" height="10" as="geometry" />
        </mxCell>
        <mxCell id="3aJ_x7FP6PWGD6nfpYZ6-68" value="" style="ellipse;whiteSpace=wrap;html=1;" parent="1" vertex="1">
          <mxGeometry x="207.5" y="70" width="10" height="10" as="geometry" />
        </mxCell>
        <mxCell id="3aJ_x7FP6PWGD6nfpYZ6-69" value="" style="ellipse;whiteSpace=wrap;html=1;" parent="1" vertex="1">
          <mxGeometry x="207.5" y="90" width="10" height="10" as="geometry" />
        </mxCell>
        <mxCell id="3aJ_x7FP6PWGD6nfpYZ6-70" value="" style="ellipse;whiteSpace=wrap;html=1;" parent="1" vertex="1">
          <mxGeometry x="207.5" y="110" width="10" height="10" as="geometry" />
        </mxCell>
        <mxCell id="3aJ_x7FP6PWGD6nfpYZ6-71" value="" style="ellipse;whiteSpace=wrap;html=1;" parent="1" vertex="1">
          <mxGeometry x="207.5" y="130" width="10" height="10" as="geometry" />
        </mxCell>
        <mxCell id="3aJ_x7FP6PWGD6nfpYZ6-72" value="" style="ellipse;whiteSpace=wrap;html=1;" parent="1" vertex="1">
          <mxGeometry x="207.5" y="150" width="10" height="10" as="geometry" />
        </mxCell>
        <mxCell id="3aJ_x7FP6PWGD6nfpYZ6-73" value="" style="endArrow=none;html=1;rounded=0;exitX=1;exitY=0;exitDx=0;exitDy=0;entryX=0;entryY=0.5;entryDx=0;entryDy=0;" parent="1" source="3aJ_x7FP6PWGD6nfpYZ6-56" target="3aJ_x7FP6PWGD6nfpYZ6-67" edge="1">
          <mxGeometry width="50" height="50" relative="1" as="geometry">
            <mxPoint x="185" y="70" as="sourcePoint" />
            <mxPoint x="205" y="60" as="targetPoint" />
          </mxGeometry>
        </mxCell>
        <mxCell id="3aJ_x7FP6PWGD6nfpYZ6-74" value="" style="endArrow=none;html=1;rounded=0;exitX=1;exitY=0;exitDx=0;exitDy=0;entryX=0;entryY=1;entryDx=0;entryDy=0;" parent="1" source="3aJ_x7FP6PWGD6nfpYZ6-57" target="3aJ_x7FP6PWGD6nfpYZ6-68" edge="1">
          <mxGeometry width="50" height="50" relative="1" as="geometry">
            <mxPoint x="194" y="81" as="sourcePoint" />
            <mxPoint x="205" y="80" as="targetPoint" />
          </mxGeometry>
        </mxCell>
        <mxCell id="3aJ_x7FP6PWGD6nfpYZ6-75" value="" style="endArrow=none;html=1;rounded=0;entryX=0;entryY=0.5;entryDx=0;entryDy=0;exitX=1;exitY=0.5;exitDx=0;exitDy=0;" parent="1" source="3aJ_x7FP6PWGD6nfpYZ6-58" target="3aJ_x7FP6PWGD6nfpYZ6-69" edge="1">
          <mxGeometry width="50" height="50" relative="1" as="geometry">
            <mxPoint x="185" y="110" as="sourcePoint" />
            <mxPoint x="205" y="100" as="targetPoint" />
          </mxGeometry>
        </mxCell>
        <mxCell id="3aJ_x7FP6PWGD6nfpYZ6-77" value="" style="endArrow=none;html=1;rounded=0;entryX=0;entryY=0.5;entryDx=0;entryDy=0;exitX=1;exitY=0.5;exitDx=0;exitDy=0;" parent="1" source="3aJ_x7FP6PWGD6nfpYZ6-60" target="3aJ_x7FP6PWGD6nfpYZ6-72" edge="1">
          <mxGeometry width="50" height="50" relative="1" as="geometry">
            <mxPoint x="205" y="135" as="sourcePoint" />
            <mxPoint x="228" y="115" as="targetPoint" />
          </mxGeometry>
        </mxCell>
        <mxCell id="3aJ_x7FP6PWGD6nfpYZ6-78" value="" style="endArrow=none;html=1;rounded=0;entryX=0;entryY=0.5;entryDx=0;entryDy=0;exitX=1;exitY=1;exitDx=0;exitDy=0;" parent="1" source="3aJ_x7FP6PWGD6nfpYZ6-60" target="3aJ_x7FP6PWGD6nfpYZ6-61" edge="1">
          <mxGeometry width="50" height="50" relative="1" as="geometry">
            <mxPoint x="215" y="145" as="sourcePoint" />
            <mxPoint x="238" y="125" as="targetPoint" />
          </mxGeometry>
        </mxCell>
        <mxCell id="3aJ_x7FP6PWGD6nfpYZ6-79" value="" style="endArrow=none;html=1;rounded=0;entryX=0;entryY=0.5;entryDx=0;entryDy=0;exitX=1;exitY=0.5;exitDx=0;exitDy=0;" parent="1" source="3aJ_x7FP6PWGD6nfpYZ6-58" target="3aJ_x7FP6PWGD6nfpYZ6-70" edge="1">
          <mxGeometry width="50" height="50" relative="1" as="geometry">
            <mxPoint x="195" y="125" as="sourcePoint" />
            <mxPoint x="218" y="105" as="targetPoint" />
          </mxGeometry>
        </mxCell>
        <mxCell id="3aJ_x7FP6PWGD6nfpYZ6-80" value="" style="endArrow=none;html=1;rounded=0;exitX=1;exitY=0.5;exitDx=0;exitDy=0;entryX=0;entryY=0;entryDx=0;entryDy=0;" parent="1" source="3aJ_x7FP6PWGD6nfpYZ6-67" target="3aJ_x7FP6PWGD6nfpYZ6-63" edge="1">
          <mxGeometry width="50" height="50" relative="1" as="geometry">
            <mxPoint x="194" y="81" as="sourcePoint" />
            <mxPoint x="218" y="65" as="targetPoint" />
          </mxGeometry>
        </mxCell>
        <mxCell id="3aJ_x7FP6PWGD6nfpYZ6-81" value="" style="endArrow=none;html=1;rounded=0;exitX=1;exitY=0.5;exitDx=0;exitDy=0;entryX=0;entryY=0.5;entryDx=0;entryDy=0;" parent="1" source="3aJ_x7FP6PWGD6nfpYZ6-68" target="3aJ_x7FP6PWGD6nfpYZ6-63" edge="1">
          <mxGeometry width="50" height="50" relative="1" as="geometry">
            <mxPoint x="228" y="65" as="sourcePoint" />
            <mxPoint x="256" y="101" as="targetPoint" />
          </mxGeometry>
        </mxCell>
        <mxCell id="3aJ_x7FP6PWGD6nfpYZ6-82" value="" style="endArrow=none;html=1;rounded=0;exitX=1;exitY=0.5;exitDx=0;exitDy=0;entryX=0;entryY=0.5;entryDx=0;entryDy=0;" parent="1" edge="1">
          <mxGeometry width="50" height="50" relative="1" as="geometry">
            <mxPoint x="217.5" y="94.8" as="sourcePoint" />
            <mxPoint x="244.5" y="94.8" as="targetPoint" />
          </mxGeometry>
        </mxCell>
        <mxCell id="3aJ_x7FP6PWGD6nfpYZ6-83" value="" style="endArrow=none;html=1;rounded=0;exitX=1;exitY=0.5;exitDx=0;exitDy=0;entryX=0;entryY=0.5;entryDx=0;entryDy=0;" parent="1" source="3aJ_x7FP6PWGD6nfpYZ6-72" target="3aJ_x7FP6PWGD6nfpYZ6-65" edge="1">
          <mxGeometry width="50" height="50" relative="1" as="geometry">
            <mxPoint x="220" y="140" as="sourcePoint" />
            <mxPoint x="245" y="140" as="targetPoint" />
          </mxGeometry>
        </mxCell>
        <mxCell id="3aJ_x7FP6PWGD6nfpYZ6-84" value="" style="endArrow=none;html=1;rounded=0;exitX=1;exitY=0.5;exitDx=0;exitDy=0;entryX=0;entryY=1;entryDx=0;entryDy=0;" parent="1" source="3aJ_x7FP6PWGD6nfpYZ6-61" target="3aJ_x7FP6PWGD6nfpYZ6-64" edge="1">
          <mxGeometry width="50" height="50" relative="1" as="geometry">
            <mxPoint x="227.5" y="164.8" as="sourcePoint" />
            <mxPoint x="254.5" y="164.8" as="targetPoint" />
          </mxGeometry>
        </mxCell>
        <mxCell id="3aJ_x7FP6PWGD6nfpYZ6-85" value="" style="endArrow=none;html=1;rounded=0;entryX=0;entryY=0;entryDx=0;entryDy=0;exitX=1;exitY=0.5;exitDx=0;exitDy=0;" parent="1" source="3aJ_x7FP6PWGD6nfpYZ6-69" target="3aJ_x7FP6PWGD6nfpYZ6-64" edge="1">
          <mxGeometry width="50" height="50" relative="1" as="geometry">
            <mxPoint x="213" y="100" as="sourcePoint" />
            <mxPoint x="256" y="101" as="targetPoint" />
          </mxGeometry>
        </mxCell>
        <mxCell id="3aJ_x7FP6PWGD6nfpYZ6-86" value="" style="endArrow=none;html=1;rounded=0;entryX=0;entryY=0.5;entryDx=0;entryDy=0;exitX=1;exitY=0.5;exitDx=0;exitDy=0;" parent="1" source="3aJ_x7FP6PWGD6nfpYZ6-71" target="3aJ_x7FP6PWGD6nfpYZ6-65" edge="1">
          <mxGeometry width="50" height="50" relative="1" as="geometry">
            <mxPoint x="228" y="105" as="sourcePoint" />
            <mxPoint x="256" y="121" as="targetPoint" />
          </mxGeometry>
        </mxCell>
        <mxCell id="3aJ_x7FP6PWGD6nfpYZ6-87" value="" style="endArrow=none;html=1;rounded=0;entryX=0;entryY=0.5;entryDx=0;entryDy=0;exitX=1;exitY=0.5;exitDx=0;exitDy=0;" parent="1" edge="1">
          <mxGeometry width="50" height="50" relative="1" as="geometry">
            <mxPoint x="218" y="114.8" as="sourcePoint" />
            <mxPoint x="245" y="114.8" as="targetPoint" />
          </mxGeometry>
        </mxCell>
        <mxCell id="3aJ_x7FP6PWGD6nfpYZ6-88" value="" style="endArrow=none;html=1;rounded=0;exitX=1;exitY=0.5;exitDx=0;exitDy=0;entryX=0;entryY=0.5;entryDx=0;entryDy=0;" parent="1" source="3aJ_x7FP6PWGD6nfpYZ6-67" target="3aJ_x7FP6PWGD6nfpYZ6-62" edge="1">
          <mxGeometry width="50" height="50" relative="1" as="geometry">
            <mxPoint x="225" y="60" as="sourcePoint" />
            <mxPoint x="245" y="70" as="targetPoint" />
          </mxGeometry>
        </mxCell>
        <mxCell id="3aJ_x7FP6PWGD6nfpYZ6-89" value="" style="endArrow=none;html=1;rounded=0;entryX=0;entryY=1;entryDx=0;entryDy=0;exitX=1;exitY=0.5;exitDx=0;exitDy=0;" parent="1" source="3aJ_x7FP6PWGD6nfpYZ6-71" target="3aJ_x7FP6PWGD6nfpYZ6-62" edge="1">
          <mxGeometry width="50" height="50" relative="1" as="geometry">
            <mxPoint x="228" y="145" as="sourcePoint" />
            <mxPoint x="255" y="145" as="targetPoint" />
          </mxGeometry>
        </mxCell>
        <mxCell id="3aJ_x7FP6PWGD6nfpYZ6-90" value="Epoch 5" style="text;html=1;align=center;verticalAlign=middle;resizable=0;points=[];autosize=1;strokeColor=none;fillColor=none;" parent="1" vertex="1">
          <mxGeometry x="177.5" y="190" width="70" height="30" as="geometry" />
        </mxCell>
        <mxCell id="3aJ_x7FP6PWGD6nfpYZ6-91" value="" style="endArrow=none;html=1;rounded=0;entryX=0;entryY=0.5;entryDx=0;entryDy=0;exitX=1;exitY=0.5;exitDx=0;exitDy=0;" parent="1" source="3aJ_x7FP6PWGD6nfpYZ6-58" target="3aJ_x7FP6PWGD6nfpYZ6-61" edge="1">
          <mxGeometry width="50" height="50" relative="1" as="geometry">
            <mxPoint x="190" y="120" as="sourcePoint" />
            <mxPoint x="218" y="125" as="targetPoint" />
          </mxGeometry>
        </mxCell>
        <mxCell id="3aJ_x7FP6PWGD6nfpYZ6-127" value="" style="rounded=1;whiteSpace=wrap;html=1;absoluteArcSize=1;arcSize=14;strokeWidth=2;fillColor=#dae8fc;strokeColor=none;" parent="1" vertex="1">
          <mxGeometry x="280" y="40" width="105" height="180" as="geometry" />
        </mxCell>
        <mxCell id="3aJ_x7FP6PWGD6nfpYZ6-128" value="" style="ellipse;whiteSpace=wrap;html=1;fillColor=#1ba1e2;strokeColor=#006EAF;fontColor=#ffffff;" parent="1" vertex="1">
          <mxGeometry x="292.5" y="70" width="10" height="10" as="geometry" />
        </mxCell>
        <object label="" id="3aJ_x7FP6PWGD6nfpYZ6-130">
          <mxCell style="ellipse;whiteSpace=wrap;html=1;fillColor=#6a00ff;strokeColor=#3700CC;fontColor=#ffffff;rotation=0;" parent="1" vertex="1">
            <mxGeometry x="290" y="110" width="15" height="15" as="geometry" />
          </mxCell>
        </object>
        <mxCell id="3aJ_x7FP6PWGD6nfpYZ6-131" value="" style="ellipse;whiteSpace=wrap;html=1;" parent="1" vertex="1">
          <mxGeometry x="295" y="148.75" width="10" height="10" as="geometry" />
        </mxCell>
        <mxCell id="3aJ_x7FP6PWGD6nfpYZ6-133" value="" style="ellipse;whiteSpace=wrap;html=1;" parent="1" vertex="1">
          <mxGeometry x="327.5" y="170" width="10" height="10" as="geometry" />
        </mxCell>
        <mxCell id="3aJ_x7FP6PWGD6nfpYZ6-134" value="" style="ellipse;whiteSpace=wrap;html=1;" parent="1" vertex="1">
          <mxGeometry x="365" y="70" width="10" height="10" as="geometry" />
        </mxCell>
        <mxCell id="3aJ_x7FP6PWGD6nfpYZ6-135" value="" style="ellipse;whiteSpace=wrap;html=1;" parent="1" vertex="1">
          <mxGeometry x="365" y="90" width="10" height="10" as="geometry" />
        </mxCell>
        <mxCell id="3aJ_x7FP6PWGD6nfpYZ6-136" value="" style="ellipse;whiteSpace=wrap;html=1;" parent="1" vertex="1">
          <mxGeometry x="365" y="110" width="10" height="10" as="geometry" />
        </mxCell>
        <mxCell id="3aJ_x7FP6PWGD6nfpYZ6-137" value="" style="ellipse;whiteSpace=wrap;html=1;" parent="1" vertex="1">
          <mxGeometry x="365" y="130" width="10" height="10" as="geometry" />
        </mxCell>
        <mxCell id="3aJ_x7FP6PWGD6nfpYZ6-138" value="" style="ellipse;whiteSpace=wrap;html=1;" parent="1" vertex="1">
          <mxGeometry x="365" y="150" width="10" height="10" as="geometry" />
        </mxCell>
        <mxCell id="3aJ_x7FP6PWGD6nfpYZ6-139" value="" style="ellipse;whiteSpace=wrap;html=1;" parent="1" vertex="1">
          <mxGeometry x="327.5" y="50" width="10" height="10" as="geometry" />
        </mxCell>
        <mxCell id="3aJ_x7FP6PWGD6nfpYZ6-140" value="" style="ellipse;whiteSpace=wrap;html=1;" parent="1" vertex="1">
          <mxGeometry x="327.5" y="70" width="10" height="10" as="geometry" />
        </mxCell>
        <mxCell id="3aJ_x7FP6PWGD6nfpYZ6-141" value="" style="ellipse;whiteSpace=wrap;html=1;" parent="1" vertex="1">
          <mxGeometry x="327.5" y="90" width="10" height="10" as="geometry" />
        </mxCell>
        <mxCell id="3aJ_x7FP6PWGD6nfpYZ6-142" value="" style="ellipse;whiteSpace=wrap;html=1;" parent="1" vertex="1">
          <mxGeometry x="327.5" y="110" width="10" height="10" as="geometry" />
        </mxCell>
        <mxCell id="3aJ_x7FP6PWGD6nfpYZ6-143" value="" style="ellipse;whiteSpace=wrap;html=1;" parent="1" vertex="1">
          <mxGeometry x="327.5" y="130" width="10" height="10" as="geometry" />
        </mxCell>
        <mxCell id="3aJ_x7FP6PWGD6nfpYZ6-144" value="" style="ellipse;whiteSpace=wrap;html=1;" parent="1" vertex="1">
          <mxGeometry x="327.5" y="150" width="10" height="10" as="geometry" />
        </mxCell>
        <mxCell id="3aJ_x7FP6PWGD6nfpYZ6-145" value="" style="endArrow=none;html=1;rounded=0;exitX=1;exitY=0.5;exitDx=0;exitDy=0;entryX=0;entryY=0;entryDx=0;entryDy=0;" parent="1" source="3aJ_x7FP6PWGD6nfpYZ6-128" target="3aJ_x7FP6PWGD6nfpYZ6-143" edge="1">
          <mxGeometry width="50" height="50" relative="1" as="geometry">
            <mxPoint x="305" y="70" as="sourcePoint" />
            <mxPoint x="325" y="60" as="targetPoint" />
          </mxGeometry>
        </mxCell>
        <mxCell id="3aJ_x7FP6PWGD6nfpYZ6-146" value="" style="endArrow=none;html=1;rounded=0;exitX=1;exitY=0.5;exitDx=0;exitDy=0;entryX=0;entryY=1;entryDx=0;entryDy=0;" parent="1" target="3aJ_x7FP6PWGD6nfpYZ6-140" edge="1">
          <mxGeometry width="50" height="50" relative="1" as="geometry">
            <mxPoint x="302.5" y="95" as="sourcePoint" />
            <mxPoint x="325" y="80" as="targetPoint" />
          </mxGeometry>
        </mxCell>
        <mxCell id="3aJ_x7FP6PWGD6nfpYZ6-147" value="" style="endArrow=none;html=1;rounded=0;entryX=0;entryY=0.5;entryDx=0;entryDy=0;exitX=1;exitY=0.5;exitDx=0;exitDy=0;" parent="1" source="3aJ_x7FP6PWGD6nfpYZ6-130" target="3aJ_x7FP6PWGD6nfpYZ6-141" edge="1">
          <mxGeometry width="50" height="50" relative="1" as="geometry">
            <mxPoint x="305" y="110" as="sourcePoint" />
            <mxPoint x="325" y="100" as="targetPoint" />
          </mxGeometry>
        </mxCell>
        <mxCell id="3aJ_x7FP6PWGD6nfpYZ6-148" value="" style="endArrow=none;html=1;rounded=0;entryX=0;entryY=0.5;entryDx=0;entryDy=0;exitX=1;exitY=1;exitDx=0;exitDy=0;" parent="1" source="3aJ_x7FP6PWGD6nfpYZ6-163" target="3aJ_x7FP6PWGD6nfpYZ6-144" edge="1">
          <mxGeometry width="50" height="50" relative="1" as="geometry">
            <mxPoint x="303.7499999999925" y="155" as="sourcePoint" />
            <mxPoint x="348" y="115" as="targetPoint" />
          </mxGeometry>
        </mxCell>
        <mxCell id="3aJ_x7FP6PWGD6nfpYZ6-149" value="" style="endArrow=none;html=1;rounded=0;entryX=0;entryY=0.5;entryDx=0;entryDy=0;exitX=1;exitY=1;exitDx=0;exitDy=0;" parent="1" source="3aJ_x7FP6PWGD6nfpYZ6-163" target="3aJ_x7FP6PWGD6nfpYZ6-133" edge="1">
          <mxGeometry width="50" height="50" relative="1" as="geometry">
            <mxPoint x="301.9194173824201" y="159.41941738242002" as="sourcePoint" />
            <mxPoint x="358" y="125" as="targetPoint" />
          </mxGeometry>
        </mxCell>
        <mxCell id="3aJ_x7FP6PWGD6nfpYZ6-150" value="" style="endArrow=none;html=1;rounded=0;entryX=0;entryY=0.5;entryDx=0;entryDy=0;exitX=1;exitY=0.5;exitDx=0;exitDy=0;" parent="1" source="3aJ_x7FP6PWGD6nfpYZ6-130" target="3aJ_x7FP6PWGD6nfpYZ6-142" edge="1">
          <mxGeometry width="50" height="50" relative="1" as="geometry">
            <mxPoint x="315" y="125" as="sourcePoint" />
            <mxPoint x="338" y="105" as="targetPoint" />
          </mxGeometry>
        </mxCell>
        <mxCell id="3aJ_x7FP6PWGD6nfpYZ6-151" value="" style="endArrow=none;html=1;rounded=0;exitX=1;exitY=0.5;exitDx=0;exitDy=0;entryX=0;entryY=0.5;entryDx=0;entryDy=0;" parent="1" source="3aJ_x7FP6PWGD6nfpYZ6-139" target="3aJ_x7FP6PWGD6nfpYZ6-137" edge="1">
          <mxGeometry width="50" height="50" relative="1" as="geometry">
            <mxPoint x="314" y="81" as="sourcePoint" />
            <mxPoint x="338" y="65" as="targetPoint" />
          </mxGeometry>
        </mxCell>
        <mxCell id="3aJ_x7FP6PWGD6nfpYZ6-152" value="" style="endArrow=none;html=1;rounded=0;exitX=1;exitY=0.5;exitDx=0;exitDy=0;entryX=0;entryY=0.5;entryDx=0;entryDy=0;" parent="1" source="3aJ_x7FP6PWGD6nfpYZ6-140" target="3aJ_x7FP6PWGD6nfpYZ6-134" edge="1">
          <mxGeometry width="50" height="50" relative="1" as="geometry">
            <mxPoint x="348" y="65" as="sourcePoint" />
            <mxPoint x="376" y="101" as="targetPoint" />
          </mxGeometry>
        </mxCell>
        <mxCell id="3aJ_x7FP6PWGD6nfpYZ6-154" value="" style="endArrow=none;html=1;rounded=0;exitX=1;exitY=0;exitDx=0;exitDy=0;entryX=0;entryY=0.5;entryDx=0;entryDy=0;" parent="1" source="3aJ_x7FP6PWGD6nfpYZ6-133" edge="1">
          <mxGeometry width="50" height="50" relative="1" as="geometry">
            <mxPoint x="337.5" y="154.8" as="sourcePoint" />
            <mxPoint x="364.5" y="154.8" as="targetPoint" />
          </mxGeometry>
        </mxCell>
        <mxCell id="3aJ_x7FP6PWGD6nfpYZ6-155" value="" style="endArrow=none;html=1;rounded=0;exitX=1;exitY=0;exitDx=0;exitDy=0;entryX=0;entryY=0.5;entryDx=0;entryDy=0;" parent="1" source="3aJ_x7FP6PWGD6nfpYZ6-144" target="3aJ_x7FP6PWGD6nfpYZ6-136" edge="1">
          <mxGeometry width="50" height="50" relative="1" as="geometry">
            <mxPoint x="347.5" y="164.8" as="sourcePoint" />
            <mxPoint x="374.5" y="164.8" as="targetPoint" />
          </mxGeometry>
        </mxCell>
        <mxCell id="3aJ_x7FP6PWGD6nfpYZ6-157" value="" style="endArrow=none;html=1;rounded=0;entryX=0;entryY=0.5;entryDx=0;entryDy=0;exitX=1;exitY=0.5;exitDx=0;exitDy=0;" parent="1" source="3aJ_x7FP6PWGD6nfpYZ6-143" target="3aJ_x7FP6PWGD6nfpYZ6-137" edge="1">
          <mxGeometry width="50" height="50" relative="1" as="geometry">
            <mxPoint x="348" y="105" as="sourcePoint" />
            <mxPoint x="376" y="121" as="targetPoint" />
          </mxGeometry>
        </mxCell>
        <mxCell id="3aJ_x7FP6PWGD6nfpYZ6-158" value="" style="endArrow=none;html=1;rounded=0;entryX=0;entryY=0.5;entryDx=0;entryDy=0;exitX=1;exitY=0.5;exitDx=0;exitDy=0;" parent="1" edge="1">
          <mxGeometry width="50" height="50" relative="1" as="geometry">
            <mxPoint x="338" y="114.8" as="sourcePoint" />
            <mxPoint x="365" y="114.8" as="targetPoint" />
          </mxGeometry>
        </mxCell>
        <mxCell id="3aJ_x7FP6PWGD6nfpYZ6-159" value="" style="endArrow=none;html=1;rounded=0;exitX=1;exitY=0.5;exitDx=0;exitDy=0;entryX=0;entryY=0.5;entryDx=0;entryDy=0;" parent="1" source="3aJ_x7FP6PWGD6nfpYZ6-139" target="3aJ_x7FP6PWGD6nfpYZ6-134" edge="1">
          <mxGeometry width="50" height="50" relative="1" as="geometry">
            <mxPoint x="345" y="60" as="sourcePoint" />
            <mxPoint x="365" y="70" as="targetPoint" />
          </mxGeometry>
        </mxCell>
        <mxCell id="3aJ_x7FP6PWGD6nfpYZ6-160" value="" style="endArrow=none;html=1;rounded=0;entryX=0;entryY=0.5;entryDx=0;entryDy=0;exitX=1;exitY=0.5;exitDx=0;exitDy=0;" parent="1" source="3aJ_x7FP6PWGD6nfpYZ6-143" target="3aJ_x7FP6PWGD6nfpYZ6-134" edge="1">
          <mxGeometry width="50" height="50" relative="1" as="geometry">
            <mxPoint x="348" y="145" as="sourcePoint" />
            <mxPoint x="375" y="145" as="targetPoint" />
          </mxGeometry>
        </mxCell>
        <mxCell id="3aJ_x7FP6PWGD6nfpYZ6-161" value="Epoch 10" style="text;html=1;align=center;verticalAlign=middle;resizable=0;points=[];autosize=1;strokeColor=none;fillColor=none;" parent="1" vertex="1">
          <mxGeometry x="297.5" y="190" width="70" height="30" as="geometry" />
        </mxCell>
        <mxCell id="3aJ_x7FP6PWGD6nfpYZ6-162" value="" style="endArrow=none;html=1;rounded=0;entryX=0;entryY=0;entryDx=0;entryDy=0;exitX=1;exitY=0.5;exitDx=0;exitDy=0;" parent="1" source="3aJ_x7FP6PWGD6nfpYZ6-130" target="3aJ_x7FP6PWGD6nfpYZ6-144" edge="1">
          <mxGeometry width="50" height="50" relative="1" as="geometry">
            <mxPoint x="310" y="120" as="sourcePoint" />
            <mxPoint x="338" y="125" as="targetPoint" />
          </mxGeometry>
        </mxCell>
        <object label="" id="3aJ_x7FP6PWGD6nfpYZ6-163">
          <mxCell style="ellipse;whiteSpace=wrap;html=1;fillColor=#005AE2;strokeColor=#0600AF;fontColor=#ffffff;rotation=0;" parent="1" vertex="1">
            <mxGeometry x="292.5" y="130" width="12.5" height="12.5" as="geometry" />
          </mxCell>
        </object>
        <mxCell id="3aJ_x7FP6PWGD6nfpYZ6-164" value="" style="endArrow=none;html=1;rounded=0;exitX=1;exitY=0.5;exitDx=0;exitDy=0;entryX=0;entryY=0.5;entryDx=0;entryDy=0;" parent="1" target="3aJ_x7FP6PWGD6nfpYZ6-139" edge="1">
          <mxGeometry width="50" height="50" relative="1" as="geometry">
            <mxPoint x="302.5" y="95" as="sourcePoint" />
            <mxPoint x="339" y="89" as="targetPoint" />
          </mxGeometry>
        </mxCell>
        <mxCell id="3aJ_x7FP6PWGD6nfpYZ6-165" value="" style="endArrow=none;html=1;rounded=0;exitX=1;exitY=0.5;exitDx=0;exitDy=0;entryX=0;entryY=1;entryDx=0;entryDy=0;" parent="1" source="3aJ_x7FP6PWGD6nfpYZ6-61" target="3aJ_x7FP6PWGD6nfpYZ6-66" edge="1">
          <mxGeometry width="50" height="50" relative="1" as="geometry">
            <mxPoint x="228" y="165" as="sourcePoint" />
            <mxPoint x="255" y="145" as="targetPoint" />
          </mxGeometry>
        </mxCell>
        <mxCell id="3aJ_x7FP6PWGD6nfpYZ6-166" value="" style="rounded=1;whiteSpace=wrap;html=1;absoluteArcSize=1;arcSize=14;strokeWidth=2;fillColor=#dae8fc;strokeColor=none;" parent="1" vertex="1">
          <mxGeometry x="35" y="270" width="105" height="130" as="geometry" />
        </mxCell>
        <mxCell id="3aJ_x7FP6PWGD6nfpYZ6-167" value="" style="ellipse;whiteSpace=wrap;html=1;fillColor=#1ba1e2;strokeColor=#006EAF;fontColor=#ffffff;" parent="1" vertex="1">
          <mxGeometry x="47.5" y="280" width="10" height="10" as="geometry" />
        </mxCell>
        <object label="" id="3aJ_x7FP6PWGD6nfpYZ6-169">
          <mxCell style="ellipse;whiteSpace=wrap;html=1;fillColor=#6a00ff;strokeColor=#3700CC;fontColor=#ffffff;rotation=0;" parent="1" vertex="1">
            <mxGeometry x="45" y="320" width="15" height="15" as="geometry" />
          </mxCell>
        </object>
        <mxCell id="3aJ_x7FP6PWGD6nfpYZ6-170" value="" style="ellipse;whiteSpace=wrap;html=1;" parent="1" vertex="1">
          <mxGeometry x="47.5" y="350" width="10" height="10" as="geometry" />
        </mxCell>
        <object label="" id="3aJ_x7FP6PWGD6nfpYZ6-171">
          <mxCell style="ellipse;whiteSpace=wrap;html=1;fillColor=#005AE2;strokeColor=#0600AF;fontColor=#ffffff;rotation=0;" parent="1" vertex="1">
            <mxGeometry x="46.25" y="370" width="12.5" height="12.5" as="geometry" />
          </mxCell>
        </object>
        <mxCell id="3aJ_x7FP6PWGD6nfpYZ6-172" style="edgeStyle=orthogonalEdgeStyle;rounded=0;orthogonalLoop=1;jettySize=auto;html=1;exitX=0.5;exitY=1;exitDx=0;exitDy=0;" parent="1" source="3aJ_x7FP6PWGD6nfpYZ6-166" target="3aJ_x7FP6PWGD6nfpYZ6-166" edge="1">
          <mxGeometry relative="1" as="geometry" />
        </mxCell>
        <mxCell id="3aJ_x7FP6PWGD6nfpYZ6-173" value="&lt;font style=&quot;font-size: 9px;&quot;&gt;s&lt;sub&gt;1&lt;/sub&gt; = 0.3&lt;br&gt;&lt;br&gt;&lt;/font&gt;" style="text;html=1;align=center;verticalAlign=middle;resizable=0;points=[];autosize=1;strokeColor=none;fillColor=none;" parent="1" vertex="1">
          <mxGeometry x="57.5" y="270" width="50" height="40" as="geometry" />
        </mxCell>
        <mxCell id="3aJ_x7FP6PWGD6nfpYZ6-174" value="&lt;font style=&quot;font-size: 9px;&quot;&gt;s&lt;sub&gt;2&lt;/sub&gt; = 0.8&lt;/font&gt;" style="text;html=1;strokeColor=none;fillColor=none;align=center;verticalAlign=middle;whiteSpace=wrap;rounded=0;" parent="1" vertex="1">
          <mxGeometry x="52.5" y="290" width="60" height="30" as="geometry" />
        </mxCell>
        <mxCell id="3aJ_x7FP6PWGD6nfpYZ6-177" value="&lt;font style=&quot;font-size: 9px;&quot;&gt;&lt;font style=&quot;font-size: 9px;&quot;&gt;s&lt;/font&gt;&lt;font style=&quot;font-size: 9px;&quot;&gt;&lt;sub&gt;3&lt;/sub&gt;&amp;nbsp;= 1.4&lt;/font&gt;&lt;/font&gt;" style="text;html=1;strokeColor=none;fillColor=none;align=center;verticalAlign=middle;whiteSpace=wrap;rounded=0;" parent="1" vertex="1">
          <mxGeometry x="52.5" y="312.5" width="60" height="30" as="geometry" />
        </mxCell>
        <mxCell id="3aJ_x7FP6PWGD6nfpYZ6-178" value="&lt;font style=&quot;font-size: 9px;&quot;&gt;&lt;font style=&quot;font-size: 9px;&quot;&gt;s&lt;/font&gt;&lt;font style=&quot;font-size: 9px;&quot;&gt;&lt;sub&gt;4&lt;/sub&gt;&lt;/font&gt;&lt;font style=&quot;font-size: 9px;&quot;&gt;&amp;nbsp;= 0&lt;/font&gt;&lt;/font&gt;" style="text;html=1;strokeColor=none;fillColor=none;align=center;verticalAlign=middle;whiteSpace=wrap;rounded=0;" parent="1" vertex="1">
          <mxGeometry x="50" y="340" width="60" height="30" as="geometry" />
        </mxCell>
        <mxCell id="3aJ_x7FP6PWGD6nfpYZ6-179" value="&lt;font style=&quot;&quot;&gt;&lt;font style=&quot;font-size: 9px;&quot;&gt;s&lt;/font&gt;&lt;font style=&quot;font-size: 7.5px;&quot;&gt;&lt;sub&gt;5&lt;/sub&gt;&lt;/font&gt;&lt;font style=&quot;font-size: 9px;&quot;&gt;&amp;nbsp;= 0.8&lt;/font&gt;&lt;/font&gt;" style="text;html=1;strokeColor=none;fillColor=none;align=center;verticalAlign=middle;whiteSpace=wrap;rounded=0;" parent="1" vertex="1">
          <mxGeometry x="52.5" y="361.25" width="60" height="30" as="geometry" />
        </mxCell>
        <object label="" id="3aJ_x7FP6PWGD6nfpYZ6-182">
          <mxCell style="ellipse;whiteSpace=wrap;html=1;fillColor=#005AE2;strokeColor=#0600AF;fontColor=#ffffff;rotation=0;" parent="1" vertex="1">
            <mxGeometry x="45" y="300" width="12.5" height="12.5" as="geometry" />
          </mxCell>
        </object>
        <object label="" id="3aJ_x7FP6PWGD6nfpYZ6-183">
          <mxCell style="ellipse;whiteSpace=wrap;html=1;fillColor=#005AE2;strokeColor=#0600AF;fontColor=#ffffff;rotation=0;" parent="1" vertex="1">
            <mxGeometry x="291.25" y="90" width="12.5" height="12.5" as="geometry" />
          </mxCell>
        </object>
      </root>
    </mxGraphModel>
  </diagram>
</mxfile>
